<?xml version="1.0" encoding="UTF-8"?><svg id="Layer_1" xmlns="http://www.w3.org/2000/svg" viewBox="0 0 397.36 155.21"><defs><style>.cls-1{fill:#418388;}</style></defs><path class="cls-1" d="m335.43,59.81c4.3-6.99,10.45-10.48,18.44-10.48v8.97c-5.71,0-10.21,1.58-13.51,4.74-3.29,3.16-4.94,7.39-4.94,12.7v25.8h-8.67v-51.4h8.67v9.68Z"/><path class="cls-1" d="m148.97,91.08c-.86,1.33-2.18,3.33-4.46,5.36-1.22,1.08-2.55,2.04-4,2.86-3.49,1.98-7.36,2.97-11.59,2.97-7.32,0-13.44-2.57-18.34-7.71-4.91-5.14-7.36-11.54-7.36-19.2s2.45-14.06,7.36-19.2c4.9-5.14,11.02-7.71,18.34-7.71,4.23,0,8.08.98,11.54,2.92,3.46,1.95,6.26,4.64,8.42,8.06v-9.78h8.67v37.9c-2.47.53-4.93,1.05-7.4,1.58-.27.49-.66,1.16-1.16,1.95Zm-18.44,2.82c5.24,0,9.61-1.76,13.1-5.29,3.49-3.53,5.24-7.94,5.24-13.25s-1.75-9.73-5.24-13.25c-3.49-3.53-7.86-5.29-13.1-5.29s-9.71,1.76-13.2,5.29c-3.49,3.53-5.24,7.95-5.24,13.25s1.75,9.73,5.24,13.25c3.49,3.53,7.89,5.29,13.2,5.29Z"/><path class="cls-1" d="m259.54,92.7h.91v8.37h-2.62c-3.9,0-6.89-1.01-8.97-3.02-2.08-2.02-3.12-4.9-3.12-8.67v-17.34c0-4.57-1.36-8.25-4.08-11.04-2.72-2.79-6.37-4.18-10.93-4.18s-8.5,1.41-11.39,4.23c-2.89,2.82-4.33,6.55-4.33,11.19v28.83h-8.67V28.5h8.67v29.73c4.1-6.52,10.28-9.78,18.54-9.78,6.25,0,11.29,1.9,15.12,5.7,3.83,3.8,5.74,8.85,5.74,15.17v18.24c0,1.55.47,2.79,1.41,3.73.94.94,2.18,1.41,3.73,1.41Z"/><rect class="cls-1" x="194.93" y="93.1" width="11.39" height="7.96"/><path class="cls-1" d="m260.44,101.06c.47-.06.97-.15,1.49-.27,1.27-.3,2.35-.72,3.23-1.15-.86-2.44-1.73-4.89-2.59-7.33-.31.11-.7.23-1.15.3-.38.06-.73.08-1.02.08.02,2.79.03,5.58.05,8.37Z"/><path class="cls-1" d="m195.54,57.52h-13.91v27.01c0,2.62.81,4.7,2.42,6.25,1.61,1.55,3.76,2.32,6.45,2.32h5.04v7.96h-6.25c-5.18,0-9.19-1.33-12.04-3.98-2.86-2.65-4.28-6.36-4.28-11.14v-28.42h-9.27v-7.86h5.95c2.55,0,3.83-1.28,3.83-3.83v-10.38h8.16v14.21h13.91v7.86Z"/><path class="cls-1" d="m172.85,80.18v4.58c0,2.62-.7,4.7-2.11,6.25-1.39,1.52-3.23,2.28-5.53,2.31-2.29-.02-4.14-.79-5.53-2.31-1.41-1.55-2.11-3.63-2.11-6.25v-4.58h-7.57v5.99c0,4.77,1.25,8.48,3.74,11.14,2.49,2.66,6,3.98,10.52,3.98h1.89c4.52,0,8.03-1.33,10.52-3.98,2.49-2.65,3.74-6.36,3.74-11.14v-5.99h-7.57Z"/><path class="cls-1" d="m320.63,76.21c.02-.2.05-.49.08-.85.41-5.73-1.73-10.21-2.59-11.98-1.27-2.63-3.01-5.04-5.22-7.22-5.21-5.14-11.71-7.71-19.5-7.71s-14.3,2.57-19.5,7.71c-5.21,5.14-7.81,11.54-7.81,19.2s2.62,14.06,7.86,19.2c5.24,5.14,11.82,7.71,19.75,7.71,5.98,0,11.32-1.51,16.03-4.54,4.7-3.02,8.06-7.02,10.08-11.99h-9.68c-1.48,2.62-3.68,4.7-6.6,6.25-2.92,1.55-6.17,2.32-9.73,2.32-4.84,0-8.94-1.41-12.3-4.23-3.36-2.82-5.41-6.52-6.15-11.09-.15-.85-.26-1.82-.29-2.87-.06-1.9.13-3.56.39-4.89.33-1.82,1.13-4.65,3.13-7.45.87-1.21,1.89-2.3,3.07-3.29,3.26-2.72,7.17-4.08,11.74-4.08s8.52,1.38,11.84,4.13c1.99,1.64,3.16,3.32,3.66,4.11,1.68,2.61,2.32,5.12,2.58,6.74-.38.16-.76.32-1.14.48.19,2.73.39,5.46.58,8.2,3.23-1.29,6.47-2.57,9.7-3.86Z"/><path class="cls-1" d="m303.59,74.77l-33.08,14.14-8.34,3.57c.36,1.3.79,2.61,1.35,3.92.49,1.15,1.05,2.21,1.64,3.24l49.83-21.3c-.4-1.29-.82-2.43-1.24-3.41-.56-1.31-1.21-2.52-1.9-3.68l-8.25,3.53Z"/><path class="cls-1" d="m260.44,101.06c.47-.06.97-.15,1.49-.27,1.27-.3,2.35-.72,3.23-1.15-.86-2.44-1.73-4.89-2.59-7.33-.31.11-.7.23-1.15.3-.38.06-.73.08-1.02.08.02,2.79.03,5.58.05,8.37Z"/><path class="cls-1" d="m89.24,50.17h8.67v45.86c0,7.79-2.4,14.06-7.21,18.8-4.8,4.74-11.14,7.11-19,7.11-6.11,0-11.37-1.46-15.77-4.38-4.4-2.92-7.48-6.94-9.22-12.04h8.97c1.41,2.62,3.53,4.69,6.35,6.2,2.82,1.51,6.05,2.27,9.68,2.27,5.31,0,9.56-1.65,12.75-4.94,3.19-3.29,4.79-7.66,4.79-13.1v-4.94c-2.15,3.36-4.96,6-8.42,7.91-3.46,1.91-7.34,2.87-11.64,2.87-7.32,0-13.44-2.5-18.34-7.51-4.91-5-7.36-11.3-7.36-18.9s2.45-13.81,7.36-18.85c4.9-5.04,11.02-7.56,18.34-7.56,4.23,0,8.1.98,11.59,2.92,3.49,1.95,6.31,4.6,8.47,7.96v-9.68Zm-18.34,43.74c5.24,0,9.61-1.77,13.1-5.29,3.49-3.53,5.24-7.94,5.24-13.25s-1.75-9.63-5.24-13.15c-3.49-3.53-7.86-5.29-13.1-5.29s-9.71,1.76-13.2,5.29c-3.49,3.53-5.24,7.91-5.24,13.15s1.75,9.73,5.24,13.25c3.49,3.53,7.89,5.29,13.2,5.29Z"/></svg>